<svg width="25" height="25" viewBox="0 0 25 25" fill="none" xmlns="http://www.w3.org/2000/svg">
<path d="M25 12.5L20 7.5V11.25H10V13.75H20V17.5L25 12.5ZM22.5 20C20.9259 22.0988 18.7313 23.6492 16.2271 24.4314C13.7229 25.2137 11.0361 25.1882 8.54715 24.3585C6.05825 23.5289 3.89348 21.9372 2.35947 19.8089C0.825467 17.6806 0 15.1235 0 12.5C0 9.87647 0.825467 7.31944 2.35947 5.19112C3.89348 3.0628 6.05825 1.47109 8.54715 0.641459C11.0361 -0.188175 13.7229 -0.213671 16.2271 0.568581C18.7313 1.35083 20.9259 2.90118 22.5 5H19.0875C17.6441 3.72708 15.8641 2.89768 13.9611 2.61132C12.058 2.32497 10.1128 2.59382 8.35874 3.38562C6.6047 4.17742 5.1164 5.45854 4.07241 7.07523C3.02843 8.69193 2.47312 10.5755 2.47312 12.5C2.47312 14.4245 3.02843 16.3081 4.07241 17.9248C5.1164 19.5415 6.6047 20.8226 8.35874 21.6144C10.1128 22.4062 12.058 22.675 13.9611 22.3887C15.8641 22.1023 17.6441 21.2729 19.0875 20H22.5Z" fill="currentColor"/>
</svg>
