<svg width="15" height="15" viewBox="0 0 15 15" fill="none" xmlns="http://www.w3.org/2000/svg">
<path d="M7.5 0C3.36443 0 0 3.36443 0 7.5C0 11.6356 3.36443 15 7.5 15C11.6356 15 15 11.6356 15 7.5C15 3.36443 11.6356 0 7.5 0ZM7.5 13.3607C4.26835 13.3607 1.63934 10.7317 1.63934 7.5C1.63934 4.26851 4.26835 1.63934 7.5 1.63934C10.7317 1.63934 13.3607 4.26851 13.3607 7.5C13.3607 10.7317 10.7317 13.3607 7.5 13.3607Z" fill="currentColor"/>
<path d="M8.14919 7.50906V4.36563C8.14919 4.01465 7.86477 3.73022 7.51392 3.73022C7.16296 3.73022 6.87851 4.01465 6.87851 4.36563V7.71205C6.87851 7.72204 6.88097 7.73141 6.88146 7.7414C6.8731 7.91418 6.93262 8.0896 7.06457 8.22158L9.43099 10.5878C9.6792 10.836 10.0815 10.836 10.3295 10.5878C10.5775 10.3396 10.5777 9.93733 10.3295 9.68928L8.14919 7.50906Z" fill="currentColor"/>
</svg>
