<svg width="25" height="25" viewBox="0 0 25 25" fill="none" xmlns="http://www.w3.org/2000/svg">
<path d="M14.9971 12.5L9.99804 7.50098V11.2502H0V13.7498H9.99804V17.499L14.9971 12.5ZM24.9951 12.5C24.9957 15.4863 23.9269 18.3741 21.9823 20.6405C20.0377 22.9069 17.3458 24.402 14.3941 24.8552C11.4424 25.3084 8.42595 24.6897 5.89101 23.111C3.35607 21.5324 1.4702 19.0982 0.574888 16.2493H3.23687C4.10695 18.4002 5.69804 20.1815 7.73744 21.288C9.77685 22.3944 12.1376 22.7571 14.4151 22.3139C16.6926 21.8707 18.7451 20.6492 20.2207 18.8587C21.6964 17.0682 22.5033 14.8202 22.5033 12.5C22.5033 10.1798 21.6964 7.93178 20.2207 6.14128C18.7451 4.35078 16.6926 3.12926 14.4151 2.68605C12.1376 2.24285 9.77685 2.60556 7.73744 3.71203C5.69804 4.8185 4.10695 6.59983 3.23687 8.75073H0.574888C1.4702 5.9018 3.35607 3.46762 5.89101 1.88898C8.42595 0.310339 11.4424 -0.308411 14.3941 0.14477C17.3458 0.597951 20.0377 2.0931 21.9823 4.3595C23.9269 6.62589 24.9957 9.51369 24.9951 12.5Z" fill="currentColor"/>
</svg>
