<svg width="20" height="16" viewBox="0 0 20 16" fill="none" xmlns="http://www.w3.org/2000/svg">
<path d="M0.888889 1.12889L2.02667 0L16.8889 14.8622L15.76 16L13.0222 13.2622C12 13.6 10.9156 13.7778 9.77778 13.7778C5.33333 13.7778 1.53778 11.0133 0 7.11111C0.613333 5.54667 1.59111 4.16889 2.83556 3.07556L0.888889 1.12889ZM9.77778 4.44444C10.485 4.44444 11.1633 4.7254 11.6634 5.22549C12.1635 5.72559 12.4444 6.40387 12.4444 7.11111C12.4444 7.42222 12.3911 7.72444 12.2933 8L8.88889 4.59556C9.16445 4.49778 9.46667 4.44444 9.77778 4.44444ZM9.77778 0.444444C14.2222 0.444444 18.0178 3.20889 19.5556 7.11111C18.8267 8.96 17.5911 10.56 16 11.7244L14.7378 10.4533C15.9467 9.61778 16.9422 8.48 17.6178 7.11111C16.1511 4.12444 13.12 2.22222 9.77778 2.22222C8.80889 2.22222 7.85778 2.38222 6.96889 2.66667L5.6 1.30667C6.88 0.755555 8.29333 0.444444 9.77778 0.444444ZM1.93778 7.11111C3.40445 10.0978 6.43556 12 9.77778 12C10.3911 12 10.9956 11.9378 11.5556 11.8133L9.52889 9.77778C8.25778 9.64444 7.24445 8.63111 7.11111 7.36L4.08889 4.32889C3.20889 5.08444 2.47111 6.02667 1.93778 7.11111Z" fill="#907A99"/>
</svg>
