<svg width="17" height="17" viewBox="0 0 17 17" fill="none" xmlns="http://www.w3.org/2000/svg">
<path d="M6.8 0C5.8565 0 5.1 0.7565 5.1 1.7V4.25C5.1 5.1935 5.8565 5.95 6.8 5.95H7.65V7.65H0V9.35H3.4V11.05H2.55C1.6065 11.05 0.85 11.8065 0.85 12.75V15.3C0.85 16.2435 1.6065 17 2.55 17H5.95C6.8935 17 7.65 16.2435 7.65 15.3V12.75C7.65 11.8065 6.8935 11.05 5.95 11.05H5.1V9.35H11.9V11.05H11.05C10.1065 11.05 9.35 11.8065 9.35 12.75V15.3C9.35 16.2435 10.1065 17 11.05 17H14.45C15.3935 17 16.15 16.2435 16.15 15.3V12.75C16.15 11.8065 15.3935 11.05 14.45 11.05H13.6V9.35H17V7.65H9.35V5.95H10.2C11.1435 5.95 11.9 5.1935 11.9 4.25V1.7C11.9 0.7565 11.1435 0 10.2 0H6.8ZM6.8 1.7H10.2V4.25H6.8V1.7ZM2.55 12.75H5.95V15.3H2.55V12.75ZM11.05 12.75H14.45V15.3H11.05V12.75Z" fill="#907A99"/>
</svg>
