<svg width="20" height="20" viewBox="0 0 20 20" fill="none" xmlns="http://www.w3.org/2000/svg">
<path d="M10 5.46875C7.50145 5.46875 5.46875 7.50148 5.46875 10C5.46875 12.4985 7.50145 14.5312 10 14.5312C10.4667 14.5312 10.9271 14.4604 11.3686 14.3207C11.78 14.1905 12.0079 13.7515 11.8777 13.3401C11.7475 12.9287 11.3084 12.7008 10.8971 12.831C10.6083 12.9224 10.3065 12.9688 10 12.9688C8.36305 12.9688 7.03125 11.637 7.03125 10C7.03125 8.36301 8.36305 7.03125 10 7.03125C11.637 7.03125 12.9688 8.36301 12.9688 10C12.9688 10.2845 12.9287 10.5656 12.8498 10.8354C12.7287 11.2495 12.9662 11.6834 13.3804 11.8045C13.7946 11.9257 14.2284 11.6881 14.3495 11.274C14.4701 10.8616 14.5312 10.433 14.5312 10C14.5312 7.50148 12.4986 5.46875 10 5.46875Z" fill="currentColor"/>
<path d="M17.6562 7.26566H17.2629C17.1593 7.26566 17.0655 7.20047 17.0249 7.10211L17.0179 7.08523C16.9759 6.98391 16.996 6.87113 17.0691 6.79793L17.3474 6.51973C18.2612 5.6059 18.2612 4.11898 17.3474 3.20516L16.795 2.65273C16.3523 2.21004 15.7637 1.96625 15.1377 1.96625C14.5116 1.96625 13.923 2.21004 13.4804 2.65273L13.2022 2.9309C13.1289 3.00414 13.0161 3.02422 12.9152 2.9823L12.9005 2.97621C12.7996 2.93453 12.7344 2.84074 12.7344 2.73727V2.34375C12.7344 1.05141 11.683 0 10.3907 0H9.60941C8.31707 0 7.26566 1.05141 7.26566 2.34375V2.73727C7.26566 2.84074 7.20051 2.93453 7.10047 2.97582L7.0852 2.98215C6.98398 3.02426 6.87109 3.00414 6.79793 2.93094L6.51973 2.65273C6.07707 2.21004 5.48848 1.96625 4.86242 1.96625C4.23637 1.96625 3.64781 2.21004 3.20512 2.65273L2.6527 3.20508C1.73887 4.11895 1.73887 5.60582 2.65273 6.51969L2.9309 6.79785C3.0041 6.87109 3.02418 6.98387 2.98094 7.08809L2.97621 7.09949C2.93457 7.20039 2.8407 7.26559 2.73723 7.26559H2.34375C1.05141 7.26559 0 8.31699 0 9.60934V10.3906C0 11.6829 1.05141 12.7343 2.34375 12.7343H2.73719C2.8407 12.7343 2.93449 12.7995 2.97516 12.8979L2.98211 12.9148C3.02418 13.0161 3.00406 13.1289 2.93086 13.2021L2.6527 13.4803C2.21 13.923 1.96621 14.5115 1.96621 15.1376C1.96621 15.7636 2.21 16.3521 2.65266 16.7948L3.20508 17.3473C3.64777 17.79 4.23637 18.0338 4.86238 18.0338C5.48848 18.0338 6.07703 17.79 6.51969 17.3473L6.79785 17.0691C6.87102 16.9959 6.98394 16.9758 7.08484 17.0177L7.09957 17.0238C7.20047 17.0655 7.26562 17.1593 7.26562 17.2627V17.6562C7.26562 18.9486 8.31703 20 9.60938 20H10.3906C11.683 20 12.7344 18.9486 12.7344 17.6562V17.2627C12.7344 17.1593 12.7995 17.0655 12.8996 17.0242L12.9148 17.0179C13.0161 16.9758 13.1289 16.9959 13.2021 17.0691L13.4803 17.3473C13.923 17.79 14.5116 18.0338 15.1376 18.0338C15.7637 18.0338 16.3522 17.79 16.7949 17.3473L17.3473 16.7948C17.79 16.3522 18.0338 15.7636 18.0338 15.1376C18.0338 14.5115 17.79 13.923 17.3473 13.4803L17.0691 13.2021C16.9959 13.1289 16.9758 13.0161 17.0179 12.9148L17.0238 12.9005C17.0655 12.7996 17.1593 12.7344 17.2628 12.7344H17.6562C18.9486 12.7344 20 11.683 20 10.3907V9.60941C20 8.31707 18.9486 7.26566 17.6562 7.26566ZM18.4375 10.3906C18.4375 10.8214 18.087 11.1719 17.6562 11.1719H17.2628C16.5243 11.1719 15.8636 11.6163 15.5796 12.304L15.5745 12.3163C15.2895 13.0037 15.4423 13.785 15.9642 14.307L16.2425 14.5852C16.39 14.7327 16.4713 14.9289 16.4713 15.1376C16.4713 15.3463 16.39 15.5424 16.2424 15.69L15.69 16.2424C15.5424 16.39 15.3463 16.4713 15.1376 16.4713C14.9289 16.4713 14.7327 16.39 14.5852 16.2424L14.3069 15.9642C13.7847 15.4421 13.003 15.2893 12.3151 15.575L12.3041 15.5796C11.6163 15.8636 11.1719 16.5243 11.1719 17.2627V17.6562C11.1719 18.087 10.8214 18.4375 10.3906 18.4375H9.60938C9.17859 18.4375 8.82812 18.087 8.82812 17.6562V17.2627C8.82812 16.5243 8.38371 15.8636 7.69512 15.5793L7.68457 15.5749C7.45449 15.4793 7.21398 15.4329 6.97609 15.4329C6.50301 15.4329 6.04051 15.6168 5.69305 15.9642L5.41484 16.2425C5.26727 16.39 5.07113 16.4713 4.86242 16.4713C4.65375 16.4713 4.45754 16.39 4.31 16.2424L3.75758 15.69C3.61 15.5424 3.52875 15.3463 3.52875 15.1376C3.52875 14.9289 3.61 14.7327 3.75758 14.5852L4.03578 14.307C4.5577 13.785 4.71059 13.0037 4.42547 12.3163L4.42039 12.304C4.13633 11.6163 3.47566 11.1719 2.73723 11.1719H2.34375C1.91297 11.1719 1.5625 10.8214 1.5625 10.3906V9.60938C1.5625 9.17859 1.91297 8.82812 2.34375 8.82812H2.73723C3.4757 8.82812 4.13637 8.38375 4.42145 7.69348L4.42508 7.68461C4.7107 6.99695 4.55789 6.21523 4.03574 5.69305L3.75758 5.41488C3.45293 5.11023 3.45293 4.61461 3.75758 4.31L4.30996 3.75758C4.45758 3.61004 4.65375 3.52875 4.86242 3.52875C5.07113 3.52875 5.2673 3.61 5.41484 3.75758L5.69309 4.03582C6.21531 4.55793 6.99707 4.71074 7.68492 4.42496L7.69594 4.42039C8.38371 4.13641 8.82812 3.47574 8.82812 2.73727V2.34375C8.82812 1.91297 9.17859 1.5625 9.60938 1.5625H10.3906C10.8214 1.5625 11.1719 1.91297 11.1719 2.34375V2.73727C11.1719 3.47574 11.6163 4.13641 12.3049 4.4207L12.3154 4.42508C13.003 4.71062 13.7847 4.55785 14.307 4.03574L14.5852 3.7575C14.7327 3.60996 14.9289 3.52871 15.1376 3.52871C15.3463 3.52871 15.5425 3.61 15.69 3.75754L16.2424 4.30996C16.5471 4.61457 16.5471 5.1102 16.2425 5.4148L15.9642 5.69305C15.4421 6.21523 15.2893 6.99691 15.5737 7.68172L15.5796 7.69598C15.8637 8.38375 16.5243 8.82812 17.2628 8.82812H17.6562C18.087 8.82812 18.4375 9.17859 18.4375 9.60938V10.3906Z" fill="currentColor"/>
</svg>
