<svg width="26" height="20" viewBox="0 0 26 20" fill="none" xmlns="http://www.w3.org/2000/svg">
<path d="M2.6 0C1.91044 0 1.24912 0.263392 0.761522 0.732233C0.273928 1.20107 0 1.83696 0 2.5V16.25C0 16.913 0.273928 17.5489 0.761522 18.0178C1.24912 18.4866 1.91044 18.75 2.6 18.75V20H5.2V18.75H19.5V20H22.1V18.75C22.7896 18.75 23.4509 18.4866 23.9385 18.0178C24.4261 17.5489 24.7 16.913 24.7 16.25V15H26V12.5H24.7V6.25H26V3.75H24.7V2.5C24.7 1.83696 24.4261 1.20107 23.9385 0.732233C23.4509 0.263392 22.7896 0 22.1 0H2.6ZM2.6 2.5H22.1V16.25H2.6V2.5ZM14.95 4.375C13.5709 4.375 12.2482 4.90178 11.273 5.83947C10.2979 6.77715 9.75 8.04892 9.75 9.375C9.75 10.7011 10.2979 11.9729 11.273 12.9105C12.2482 13.8482 13.5709 14.375 14.95 14.375C16.3291 14.375 17.6518 13.8482 18.627 12.9105C19.6021 11.9729 20.15 10.7011 20.15 9.375C20.15 8.04892 19.6021 6.77715 18.627 5.83947C17.6518 4.90178 16.3291 4.375 14.95 4.375ZM3.9 6.25V12.5H6.5V6.25H3.9ZM14.95 6.875C15.6396 6.875 16.3009 7.13839 16.7885 7.60723C17.2761 8.07607 17.55 8.71196 17.55 9.375C17.55 10.038 17.2761 10.6739 16.7885 11.1428C16.3009 11.6116 15.6396 11.875 14.95 11.875C14.2604 11.875 13.5991 11.6116 13.1115 11.1428C12.6239 10.6739 12.35 10.038 12.35 9.375C12.35 8.71196 12.6239 8.07607 13.1115 7.60723C13.5991 7.13839 14.2604 6.875 14.95 6.875Z" fill="currentColor"/>
<defs>
<linearGradient id="gradient" x1="32.0667" y1="38.75" x2="-1.28748" y2="-23.4766" gradientUnits="userSpaceOnUse">
<stop stop-color="#9CF9FF"/>
<stop offset="0.483129" stop-color="#02CCFC"/>
<stop offset="1" stop-color="#446C9F"/>
</linearGradient>
</defs>
</svg>
