<svg width="20" height="20" viewBox="0 0 20 20" fill="none" xmlns="http://www.w3.org/2000/svg">
<path d="M17.5 4.16634V3.33301C17.5 1.95422 16.3788 0.833008 15 0.833008H2.5C1.12122 0.833008 0 1.95422 0 3.33301V16.6663C0 18.0451 1.12122 19.1663 2.5 19.1663H17.5C18.8788 19.1663 20 18.0451 20 16.6663V6.66634C20 5.28756 18.8788 4.16634 17.5 4.16634ZM2.5 2.49967H15C15.4596 2.49967 15.8333 2.87341 15.8333 3.33301V4.16634H2.5C2.04041 4.16634 1.66667 3.7926 1.66667 3.33301C1.66667 2.87341 2.04041 2.49967 2.5 2.49967ZM17.5 17.4997H2.5C2.04041 17.4997 1.66667 17.1259 1.66667 16.6663V5.69019C1.92749 5.78255 2.20784 5.83301 2.5 5.83301H17.5C17.9596 5.83301 18.3333 6.20675 18.3333 6.66634V8.74967H13.75C12.1417 8.74967 10.8333 10.0585 10.8333 11.6663C10.8333 13.2742 12.1417 14.583 13.75 14.583H18.3333V16.6663C18.3333 17.1259 17.9596 17.4997 17.5 17.4997ZM18.3333 12.9163H16.3833C16.5666 12.5292 16.6667 12.1056 16.6667 11.6663C16.6667 11.2188 16.5621 10.796 16.3812 10.4163H18.3333V12.9163ZM12.5 11.6663C12.5 10.9773 13.0609 10.4163 13.75 10.4163C14.4391 10.4163 15 10.9773 15 11.6663C15 12 14.8696 12.316 14.6387 12.5489C14.3996 12.7859 14.0837 12.9163 13.75 12.9163C13.0609 12.9163 12.5 12.3554 12.5 11.6663Z" fill="currentColor"/>
</svg>
