<svg width="2694" height="825" viewBox="0 0 2694 825" fill="none" xmlns="http://www.w3.org/2000/svg">
<path d="M2221.54 824.468C2227.23 806.244 2232.92 788.02 2238.61 769.795C2258.13 707.332 2266.87 644.617 2242.79 588.795C2216.05 526.828 2156.24 489.86 2090.48 495.75C2034.68 500.748 1976.69 511.119 1934.45 470.33C1902.47 439.448 1877.75 400.381 1830.22 393.423C1782.74 386.472 1732.43 418.369 1691.75 455.59C1651.07 492.812 1614.37 537.156 1568.72 565.012C1530.67 588.239 1487.66 598.591 1447.77 594.128C1354.79 583.726 1285.02 496.972 1189.64 502.529C1135.92 505.659 952.111 282.916 913.857 486.327C852.569 812.217 360.852 649.346 312.234 692.551" stroke="white"/>
<path d="M2233.04 809.199C2237.72 791.748 2242.32 773.949 2247.04 756.17C2263.22 695.156 2269.48 635.126 2244.11 577.486C2217.19 516.304 2158.09 480.072 2093.02 484.957C2036.89 489.17 1978.9 497.706 1934.99 459.039C1901 429.097 1873.63 394.769 1824.06 388.819C1775.46 382.985 1723.71 413.206 1682.56 448.565C1641.56 483.786 1605.63 527.031 1559.74 552.765C1521.01 574.482 1474.6 584.042 1435.68 579.688C1343.92 569.713 1274.58 483.471 1180.78 491.421C1124.69 496.174 943.679 281.523 905.427 480.688C844.014 799.875 352.647 634.703 304.643 678.983" stroke="white"/>
<path d="M2244.55 793.93C2248.21 777.251 2251.72 759.883 2255.46 742.545C2268.31 682.994 2272.1 625.636 2245.44 566.178C2218.35 505.768 2159.93 470.264 2095.55 474.164C2039.08 477.585 1981 484.312 1935.54 447.749C1899.45 418.723 1869.52 389.139 1817.91 384.216C1768.19 379.474 1715.03 408.026 1673.37 441.54C1632.08 474.752 1596.84 516.898 1550.75 540.518C1511.29 560.741 1461.55 569.373 1423.59 565.248C1333.09 555.413 1264.11 470.222 1171.92 480.312C1113.39 486.719 935.247 280.13 896.998 475.049C835.458 787.534 344.444 620.06 297.052 665.415" stroke="white"/>
<path d="M2256.05 778.661C2258.7 762.755 2261.12 745.821 2263.89 728.92C2273.39 670.847 2274.73 616.146 2246.77 554.869C2219.55 495.223 2161.75 460.434 2098.09 463.37C2041.26 465.992 1983 470.948 1936.08 436.458C1897.83 408.34 1865.43 383.492 1811.75 379.613C1760.94 375.94 1706.37 402.831 1664.17 434.514C1622.62 465.711 1587.99 506.747 1541.77 528.271C1501.52 547.011 1448.5 554.766 1411.51 550.808C1322.24 541.257 1253.61 457.199 1163.06 469.204C1102.03 477.295 926.815 278.737 888.569 469.41C826.903 775.193 336.24 605.417 289.461 651.847" stroke="white"/>
<path d="M2267.56 763.392C2269.18 748.259 2270.52 731.765 2272.31 715.294C2278.47 658.718 2277.37 606.656 2248.09 543.561C2220.77 484.668 2163.57 450.583 2100.63 452.577C2043.44 454.389 1984.92 457.625 1936.63 425.167C1896.15 397.955 1861.34 377.828 1805.6 375.01C1753.69 372.385 1697.75 397.621 1654.98 427.489C1613.2 456.666 1579.08 496.572 1532.78 516.024C1491.69 533.286 1435.44 540.16 1399.42 536.367C1311.39 527.1 1243.1 444.378 1154.19 458.096C1090.62 467.905 918.384 277.344 880.139 463.771C818.348 762.851 328.036 590.773 281.87 638.278" stroke="white"/>
<path d="M2279.06 748.123C2279.67 733.763 2279.92 717.715 2280.74 701.669C2283.55 646.609 2280.02 597.164 2249.42 532.252C2222.01 474.105 2165.39 440.711 2103.17 441.784C2045.6 442.777 1986.74 444.348 1937.18 413.876C1894.4 387.58 1857.26 372.147 1799.44 370.406C1746.44 368.811 1689.17 392.4 1645.79 420.463C1603.81 447.622 1570.11 486.365 1523.79 503.777C1481.8 519.562 1422.39 525.556 1387.33 521.927C1300.53 512.943 1232.58 431.739 1145.33 446.987C1079.17 458.55 909.952 275.951 871.71 458.133C809.793 750.51 319.832 576.13 274.279 624.71" stroke="white"/>
<path d="M2290.57 732.854C2290.16 719.266 2289.32 703.671 2289.16 688.044C2288.63 634.522 2282.67 587.671 2250.75 520.944C2223.28 463.533 2167.19 430.816 2105.71 430.99C2047.76 431.154 1988.5 431.122 1937.72 402.585C1892.59 377.223 1853.18 366.45 1793.29 365.803C1739.2 365.219 1680.62 387.172 1636.6 413.438C1594.45 438.581 1561.09 476.12 1514.81 491.53C1471.86 505.83 1409.33 510.954 1375.24 507.487C1289.68 498.786 1222.07 419.262 1136.47 435.879C1067.69 449.231 901.52 274.558 863.281 452.494C801.238 738.169 311.628 561.487 266.688 611.142" stroke="white"/>
<path d="M2302.07 717.584C2300.65 704.77 2298.72 689.635 2297.59 674.418C2293.72 622.457 2285.34 578.176 2252.07 509.635C2224.56 452.954 2168.99 420.901 2108.25 420.197C2049.9 419.521 1990.18 417.95 1938.27 391.295C1890.73 366.891 1849.11 360.738 1787.14 361.2C1731.96 361.611 1672.12 381.94 1627.41 406.413C1585.13 429.549 1552.01 465.83 1505.82 479.283C1461.86 492.085 1396.28 496.353 1363.15 493.047C1278.83 484.629 1211.56 406.929 1127.61 424.771C1056.18 439.951 893.089 273.165 854.851 446.855C792.682 725.828 303.424 546.844 259.097 597.574" stroke="white"/>
<path d="M2313.58 702.315C2311.14 690.274 2308.12 675.605 2306.01 660.793C2298.83 610.414 2288.02 568.679 2253.4 498.326C2225.86 442.367 2170.78 410.964 2110.79 409.404C2052.04 407.876 1991.82 404.834 1938.81 380.004C1888.83 356.59 1845.04 355.011 1780.98 356.597C1724.72 357.989 1663.65 376.708 1618.21 399.387C1575.85 420.53 1542.88 455.492 1496.83 467.036C1451.82 478.321 1383.22 481.755 1351.07 478.607C1267.97 470.472 1201.05 394.724 1118.75 413.662C1044.65 430.711 884.657 271.772 846.422 441.216C784.127 713.486 295.22 532.201 251.506 584.006" stroke="white"/>
<path d="M2325.08 687.046C2321.63 675.778 2317.53 661.582 2314.43 647.168C2303.96 598.391 2290.71 559.178 2254.73 487.018C2227.18 431.774 2172.57 401.006 2113.32 398.611C2054.18 396.219 1993.4 391.772 1939.36 368.713C1886.89 346.324 1840.97 349.271 1774.83 351.993C1717.49 354.353 1655.23 371.482 1609.02 392.362C1566.61 411.528 1533.71 445.1 1487.85 454.789C1441.73 464.532 1370.16 467.158 1338.98 464.167C1257.12 456.315 1190.56 382.634 1109.88 402.554C1033.11 421.511 876.225 270.379 837.993 435.578C775.572 701.145 287.016 517.558 243.915 570.437" stroke="white"/>
<path d="M2336.59 671.777C2331.28 659.305 2326.7 646.539 2322.86 633.542C2309.11 586.384 2293.41 549.674 2256.05 475.709C2228.51 421.174 2174.35 391.026 2115.86 387.817C2056.3 384.549 1994.95 378.764 1939.9 357.422C1884.91 336.099 1836.91 343.518 1768.67 347.39C1710.25 350.705 1646.84 366.266 1599.83 385.336C1557.4 402.548 1524.5 434.654 1478.86 442.542C1431.6 450.711 1357.11 452.563 1326.89 449.727C1246.26 442.158 1180.07 370.647 1101.02 391.445C1021.56 412.353 867.793 268.986 829.564 429.939C767.017 688.804 278.812 502.915 236.324 556.869" stroke="white"/>
<path d="M2348.09 656.508C2341.59 644.745 2335.97 632.514 2331.28 619.917C2314.29 574.389 2296.12 540.167 2257.38 464.401C2229.85 410.569 2176.13 381.026 2118.4 377.024C2058.42 372.866 1996.46 365.808 1940.45 346.131C1882.9 325.917 1832.84 337.752 1762.52 342.787C1703.02 347.047 1638.49 361.065 1590.64 378.311C1548.23 393.594 1515.26 424.151 1469.87 430.295C1421.43 436.854 1344.05 437.97 1314.8 435.286C1235.4 428.001 1169.6 358.75 1092.16 380.337C1010 403.24 859.701 267.676 821.134 424.3C759.009 676.598 270.608 488.272 228.732 543.301" stroke="white"/>
<path d="M2359.59 641.239C2353.09 632.289 2345.81 619.537 2339.71 606.292C2319.5 562.399 2298.84 530.655 2258.71 453.092C2231.21 399.958 2177.9 371.005 2120.94 366.231C2060.54 361.168 1997.95 352.9 1940.99 334.84C1880.87 315.779 1828.77 331.975 1756.36 338.184C1695.79 343.378 1630.18 355.885 1581.44 371.286C1539.09 384.67 1505.99 413.591 1460.89 418.048C1411.23 422.956 1330.99 423.38 1302.71 420.846C1224.54 413.843 1159.14 346.936 1083.3 369.229C998.436 394.172 851.297 266.292 812.705 418.661C750.497 664.272 262.404 473.629 221.141 529.733" stroke="white"/>
<path d="M2371.1 625.97C2363.58 617.793 2355.25 605.524 2348.13 592.666C2324.74 550.408 2301.57 521.138 2260.03 441.783C2232.58 389.341 2179.67 360.964 2123.48 355.437C2062.65 349.455 1999.43 340.038 1941.54 323.55C1878.83 305.687 1824.7 326.187 1750.21 333.58C1688.55 339.7 1621.9 350.732 1572.25 364.26C1529.98 375.778 1496.69 402.976 1451.9 405.801C1401.01 409.012 1317.94 408.791 1290.63 406.406C1213.68 399.686 1148.7 335.195 1074.44 358.12C986.877 385.15 842.891 264.909 804.276 413.023C741.985 651.946 254.2 458.985 213.55 516.165" stroke="white"/>
<path d="M2382.6 610.701C2374.07 603.297 2364.7 591.509 2356.56 579.041C2330.01 538.408 2304.31 511.616 2261.36 430.475C2233.96 378.72 2181.45 350.903 2126.02 344.644C2064.76 337.727 2000.89 327.219 1942.08 312.259C1876.77 295.641 1820.63 320.388 1744.05 328.977C1681.31 336.013 1613.66 345.609 1563.06 357.235C1520.9 366.923 1487.39 392.305 1442.92 393.554C1390.77 395.019 1304.88 394.205 1278.54 391.966C1202.82 385.528 1138.27 323.519 1065.57 347.012C975.324 376.178 834.485 263.526 795.846 407.384C733.471 639.621 245.996 444.342 205.959 502.597" stroke="white"/>
<path d="M2394.11 595.432C2384.56 588.8 2374.16 577.49 2364.98 565.416C2335.31 526.395 2307.07 502.089 2262.69 419.166C2235.35 368.093 2183.22 340.822 2128.56 333.851C2066.87 325.982 2002.34 314.44 1942.63 300.968C1874.7 285.642 1816.56 314.58 1737.9 324.374C1674.08 332.32 1605.44 340.523 1553.87 350.21C1511.83 358.105 1478.07 381.583 1433.93 381.307C1380.52 380.974 1291.82 379.622 1266.45 377.526C1191.96 371.37 1127.85 311.903 1056.71 335.904C963.781 367.256 826.077 262.143 787.417 401.745C724.955 627.296 237.792 429.699 198.368 489.028" stroke="white"/>
<path d="M2405.61 580.163C2395.05 574.304 2383.63 563.465 2373.41 551.79C2340.63 514.363 2309.83 492.556 2264.01 407.858C2236.75 357.462 2184.99 330.722 2131.1 323.057C2068.97 314.221 2003.79 301.697 1943.18 289.677C1872.62 275.688 1812.49 308.763 1731.74 319.771C1666.84 328.619 1597.24 335.477 1544.68 343.184C1502.79 349.326 1468.75 370.811 1424.94 369.06C1370.26 366.875 1278.76 365.041 1254.36 363.086C1181.1 357.213 1117.45 300.339 1047.85 324.795C952.25 358.386 817.669 260.76 778.988 396.106C716.438 614.972 229.588 415.056 190.777 475.46" stroke="white"/>
<path d="M2417.12 564.894C2405.54 559.808 2393.1 549.434 2381.83 538.165C2345.97 502.311 2312.61 483.017 2265.34 396.549C2238.15 346.827 2186.76 320.604 2133.63 312.264C2071.08 302.442 2005.24 288.987 1943.72 278.386C1870.55 265.777 1808.41 302.938 1725.59 315.167C1659.59 324.912 1589.05 330.475 1535.48 336.159C1493.76 340.585 1459.43 359.994 1415.96 356.813C1360 352.72 1265.7 350.463 1242.27 348.645C1170.23 343.055 1107.06 288.824 1038.99 313.687C940.735 349.571 809.259 259.378 770.559 390.468C707.919 602.649 221.384 400.413 183.186 461.892" stroke="white"/>
<path d="M2428.62 549.625C2416.03 545.312 2402.58 535.395 2390.26 524.54C2351.32 490.237 2315.4 473.472 2266.66 385.24C2239.57 336.188 2188.53 310.468 2136.17 301.471C2073.18 290.646 2006.69 276.308 1944.27 267.096C1868.47 255.91 1804.33 297.104 1719.43 310.564C1652.35 321.199 1580.88 325.52 1526.29 329.133C1484.74 331.884 1450.11 349.133 1406.97 344.567C1349.75 338.51 1252.64 335.889 1230.19 334.205C1159.37 328.897 1096.69 277.351 1030.13 302.578C929.24 340.813 800.847 257.996 762.129 384.829C699.397 590.326 213.18 385.77 175.595 448.324" stroke="white"/>
<path d="M2440.13 534.356C2426.52 530.815 2412.05 521.35 2398.68 510.914C2356.67 478.141 2318.21 463.919 2267.99 373.932C2240.99 325.545 2190.3 300.314 2138.71 290.677C2075.29 278.83 2008.15 263.656 1944.81 255.805C1866.4 246.085 1800.25 291.263 1713.28 305.961C1645.11 317.481 1572.71 320.613 1517.1 322.108C1475.72 323.22 1440.8 338.234 1397.98 332.319C1339.51 324.243 1239.58 321.317 1218.1 319.765C1148.5 314.739 1086.34 265.916 1021.26 291.47C917.767 332.114 792.435 256.614 753.7 379.19C690.873 578.004 204.976 371.127 168.004 434.756" stroke="white"/>
<path d="M2451.63 519.086C2437.01 516.319 2421.53 507.297 2407.1 497.289C2362.03 466.025 2321.02 454.359 2269.32 362.623C2242.42 314.898 2192.08 290.143 2141.25 279.884C2077.4 266.996 2009.61 251.029 1945.36 244.514C1864.33 236.298 1796.17 285.415 1707.12 301.358C1637.86 313.758 1564.54 315.756 1507.91 315.083C1466.69 314.592 1431.5 327.299 1389 320.073C1329.28 309.92 1226.52 306.748 1206.01 305.325C1137.63 300.58 1075.99 254.517 1012.4 280.362C906.319 323.476 784.02 255.233 745.271 373.551C682.347 565.682 196.772 356.484 160.413 421.187" stroke="white"/>
<path d="M2463.14 503.817C2447.49 501.823 2431.01 493.239 2415.53 483.664C2367.38 453.89 2323.85 444.791 2270.64 351.315C2243.85 304.247 2193.85 279.955 2143.79 269.091C2079.51 255.141 2011.08 238.424 1945.9 233.223C1862.27 226.549 1792.09 279.56 1700.97 296.754C1630.61 310.031 1556.37 310.949 1498.72 308.057C1457.67 305.998 1422.22 316.333 1380.01 307.826C1319.08 295.544 1213.46 292.183 1193.92 290.885C1126.76 286.422 1065.67 243.148 1003.54 269.253C894.902 314.903 775.604 253.852 736.841 367.912C673.818 553.361 188.568 341.841 152.822 407.619" stroke="white"/>
<path d="M2474.64 488.548C2457.98 487.327 2440.49 479.175 2423.95 470.039C2372.73 441.739 2326.7 435.215 2271.97 340.006C2245.29 293.593 2195.64 269.752 2146.33 258.297C2081.62 243.266 2012.56 225.84 1946.45 221.932C1860.22 216.836 1788 273.699 1694.82 292.151C1623.36 306.299 1548.18 306.191 1489.52 301.032C1448.64 297.435 1412.95 305.34 1371.02 295.579C1308.9 281.114 1200.4 277.622 1181.84 276.445C1115.89 272.263 1055.35 231.808 994.678 258.145C883.517 306.396 767.186 252.471 728.412 362.274C665.286 541.04 180.364 327.198 145.23 394.051" stroke="white"/>
<path d="M2486.15 473.279C2468.47 472.83 2449.97 465.107 2432.38 456.413C2378.08 429.573 2329.55 425.63 2273.3 328.698C2246.74 282.935 2197.42 259.533 2148.87 247.504C2083.75 231.371 2014.05 213.273 1946.99 210.641C1858.17 207.156 1783.91 267.833 1688.66 287.548C1616.11 302.564 1539.97 301.481 1480.33 294.006C1439.59 288.9 1403.7 294.322 1362.04 283.332C1298.74 266.635 1187.34 263.064 1169.75 262.005C1105.01 258.105 1045.05 220.493 985.816 247.037C872.169 297.96 758.765 251.09 719.983 356.635C656.75 528.719 172.16 312.555 137.639 380.483" stroke="white"/>
<path d="M2497.65 458.01C2478.96 458.334 2459.44 451.034 2440.8 442.788C2383.41 417.396 2332.43 416.036 2274.62 317.389C2248.19 272.274 2199.21 249.3 2151.41 236.711C2085.87 219.454 2015.55 200.722 1947.54 199.351C1856.14 197.507 1779.82 261.96 1682.51 282.944C1608.86 298.825 1531.74 296.816 1471.14 286.981C1430.53 280.39 1394.47 283.284 1353.05 271.085C1288.62 252.107 1174.28 248.511 1157.66 247.564C1094.13 243.946 1034.77 209.2 976.954 235.928C860.861 289.596 750.342 249.709 711.553 350.996C648.21 516.399 163.956 297.911 130.048 366.915" stroke="white"/>
<path d="M2509.16 442.741C2489.45 443.838 2468.91 436.958 2449.23 429.163C2388.74 405.209 2335.31 406.432 2275.95 306.08C2249.64 261.611 2201.01 239.053 2153.94 225.917C2088.01 207.515 2017.06 188.186 1948.09 188.06C1854.12 187.888 1775.72 256.083 1676.35 278.341C1601.6 295.084 1523.49 292.195 1461.95 279.956C1421.45 271.902 1385.26 272.229 1344.06 258.838C1278.53 237.535 1161.21 233.962 1145.57 233.124C1083.26 229.787 1024.51 197.927 968.092 224.82C849.597 281.307 741.917 248.328 703.124 345.357C639.667 504.079 155.752 283.268 122.457 353.347" stroke="white"/>
<path d="M2520.66 427.472C2499.94 429.342 2478.38 422.88 2457.65 415.537C2394.06 393.014 2338.22 396.818 2277.28 294.772C2251.1 250.943 2202.81 228.793 2156.48 215.124C2090.16 195.554 2018.58 175.663 1948.63 176.769C1852.11 178.296 1771.63 250.2 1670.2 273.738C1594.35 291.339 1515.21 287.612 1452.76 272.93C1412.35 263.433 1376.07 261.159 1335.08 246.591C1268.47 222.922 1148.15 219.418 1133.48 218.684C1072.37 215.628 1014.25 186.672 959.23 213.711C838.383 273.098 733.488 246.948 694.695 339.719C631.118 491.758 147.548 268.625 114.866 339.778" stroke="white"/>
<path d="M2532.17 412.203C2510.43 414.846 2487.85 408.799 2466.08 401.912C2399.38 380.813 2341.13 387.194 2278.6 283.463C2252.57 240.273 2204.62 218.52 2159.02 204.331C2092.31 183.57 2020.11 163.151 1949.18 165.478C1850.11 168.729 1767.53 244.313 1664.04 269.135C1587.09 287.592 1506.91 283.065 1443.56 265.905C1403.24 254.98 1366.91 250.078 1326.09 234.344C1258.45 208.27 1135.09 204.878 1121.4 204.244C1061.49 201.469 1004.02 175.432 950.368 202.603C827.221 264.97 725.056 245.566 686.265 334.08C622.564 479.438 139.344 253.982 107.275 326.21" stroke="white"/>
<path d="M2543.67 396.934C2520.92 400.349 2497.31 394.717 2474.5 388.287C2404.68 368.607 2344.07 377.559 2279.93 272.155C2254.04 229.601 2206.43 208.236 2161.56 193.537C2094.48 171.563 2021.65 150.648 1949.72 154.187C1848.13 159.186 1763.43 238.422 1657.89 264.531C1579.83 283.842 1498.56 278.55 1434.37 258.879C1394.1 246.539 1357.76 238.988 1317.11 222.097C1248.47 193.584 1122.02 190.344 1109.31 189.804C1050.61 187.31 993.799 164.206 941.506 191.495C816.117 256.929 716.62 244.185 677.836 328.441C614.003 467.116 131.14 239.339 99.6841 312.642" stroke="white"/>
<path d="M2555.18 381.665C2531.41 385.853 2506.77 380.633 2482.92 374.661C2409.98 356.397 2347.02 367.912 2281.26 260.846C2255.51 218.925 2208.25 197.94 2164.1 182.744C2096.66 159.532 2023.2 138.155 1950.27 142.897C1846.16 149.664 1759.32 232.527 1651.73 259.928C1572.57 280.09 1490.19 274.063 1425.18 251.854C1384.94 238.108 1348.64 227.891 1308.12 209.85C1238.53 178.867 1108.96 175.815 1097.22 175.364C1039.72 173.151 983.596 152.99 932.644 180.386C805.076 248.976 708.18 242.802 669.407 322.802C605.437 454.793 122.937 224.696 92.093 299.074" stroke="white"/>
<path d="M2566.68 366.396C2541.89 371.357 2516.24 366.549 2491.35 361.036C2415.27 344.184 2349.99 358.252 2282.58 249.537C2256.98 208.246 2210.08 187.634 2166.64 171.951C2098.85 147.478 2024.77 125.669 1950.81 131.606C1844.2 140.163 1755.22 226.628 1645.58 255.325C1565.3 276.336 1481.78 269.6 1415.99 244.829C1375.76 229.684 1339.54 216.79 1299.13 197.603C1228.62 164.122 1095.9 161.293 1085.13 160.923C1028.83 158.991 973.41 141.785 923.782 169.278C794.103 241.116 699.735 241.418 660.978 317.164C596.862 442.468 114.733 210.053 84.502 285.506" stroke="white"/>
<path d="M2578.19 351.127C2552.38 356.861 2525.69 352.464 2499.77 347.411C2420.56 331.969 2352.98 348.58 2283.91 238.229C2258.46 197.565 2211.92 177.318 2169.18 161.158C2101.05 135.4 2026.35 113.19 1951.36 120.315C1842.26 130.68 1751.11 220.725 1639.42 250.722C1558.04 272.58 1473.34 265.156 1406.79 237.803C1366.56 221.265 1330.46 205.686 1290.15 185.356C1218.75 149.354 1082.83 146.777 1073.04 146.483C1017.93 144.832 963.242 130.587 914.92 158.169C783.204 233.352 691.285 240.032 652.548 311.525C588.279 430.14 106.529 195.41 76.9108 271.937" stroke="white"/>
<path d="M2589.69 335.858C2562.87 342.364 2535.15 338.378 2508.2 333.785C2425.84 319.752 2355.99 338.895 2285.24 226.92C2259.94 186.881 2213.76 166.993 2171.71 150.364C2103.28 123.298 2027.93 100.717 1951.9 109.024C1840.33 121.215 1747 214.818 1633.27 246.118C1550.77 268.822 1464.87 260.728 1397.6 230.778C1357.33 212.849 1321.41 194.582 1281.16 173.109C1208.92 134.565 1069.77 132.267 1060.96 132.043C1007.03 130.672 953.091 119.396 906.058 147.061C772.384 225.688 682.829 238.644 644.119 305.886C579.686 417.809 98.3246 180.766 69.3197 258.369" stroke="white"/>
<path d="M2601.2 320.589C2573.36 327.868 2544.61 324.292 2516.62 320.16C2431.11 307.535 2359.02 329.195 2286.56 215.612C2261.42 176.195 2215.62 156.66 2174.25 139.571C2105.52 111.172 2029.53 88.2496 1952.45 97.7333C1838.41 111.764 1742.89 208.909 1627.11 241.515C1543.51 265.062 1456.37 256.312 1388.41 223.752C1348.09 204.434 1312.37 183.478 1272.17 160.862C1199.12 119.759 1056.7 117.765 1048.87 117.603C996.131 116.512 942.959 108.209 897.196 135.953C761.651 218.127 674.367 237.253 635.69 300.247C571.084 405.472 90.1207 166.123 61.7286 244.801" stroke="white"/>
<path d="M2612.7 305.319C2583.85 313.372 2554.06 310.206 2525.05 306.535C2436.38 295.317 2362.06 319.48 2287.89 204.303C2262.9 165.506 2217.48 146.319 2176.79 128.778C2107.77 99.0221 2031.14 75.7863 1952.99 86.4425C1836.5 102.328 1738.77 202.996 1620.96 236.912C1536.24 261.301 1447.83 251.906 1379.22 216.727C1338.83 196.018 1303.35 172.377 1263.19 148.615C1189.36 104.938 1043.63 103.271 1036.78 103.163C985.226 102.352 932.846 97.0245 888.334 124.844C751.009 210.672 665.898 235.858 627.26 294.609C562.469 393.128 81.9167 151.48 54.1376 231.233" stroke="white"/>
<path d="M2624.21 290.05C2594.34 298.876 2563.51 296.119 2533.47 292.91C2441.65 283.098 2365.13 309.75 2289.22 192.994C2264.39 154.814 2219.36 135.972 2179.33 117.984C2110.05 86.8478 2032.76 63.3269 1953.54 75.1517C1834.6 92.9055 1734.66 197.081 1614.8 232.309C1528.97 257.539 1439.27 247.506 1370.03 209.702C1329.55 187.6 1294.35 161.278 1254.2 136.368C1179.63 90.1056 1030.57 88.7845 1024.69 88.7226C974.317 88.1925 922.752 85.8413 879.472 113.736C740.467 203.327 657.421 234.457 618.831 288.97C553.842 380.775 73.7128 136.837 46.5465 217.665" stroke="white"/>
<path d="M2635.71 274.781C2604.83 284.379 2572.96 282.033 2541.9 279.284C2446.91 270.88 2368.22 300.004 2290.54 181.686C2265.88 144.119 2221.24 125.619 2181.87 107.191C2112.35 74.6495 2034.38 50.8707 1954.09 63.8608C1832.72 83.4945 1730.54 191.163 1608.65 227.705C1521.69 253.775 1430.67 243.109 1360.83 202.676C1320.25 179.179 1285.37 150.183 1245.21 124.121C1169.94 75.2644 1017.5 74.3073 1012.61 74.2825C963.404 74.0326 912.678 74.6575 870.61 102.628C730.032 196.095 648.937 233.048 610.402 283.331C545.201 368.409 65.5088 122.194 38.9554 204.096" stroke="white"/>
<path d="M2647.22 259.512C2615.32 269.883 2582.41 267.947 2550.32 265.659C2452.17 258.662 2371.33 290.241 2291.87 170.377C2267.37 133.423 2223.13 115.261 2184.41 96.3976C2114.67 62.4274 2036.02 38.4174 1954.63 52.5701C1830.85 74.0944 1726.42 185.242 1602.5 223.102C1514.42 250.01 1422.05 238.713 1351.64 195.651C1310.93 170.755 1276.41 139.093 1236.23 111.874C1160.27 60.4167 1004.43 59.8399 1000.52 59.8423C952.486 59.8727 902.625 63.4716 861.748 91.5193C719.71 188.978 640.444 231.63 601.972 277.692C536.546 356.026 57.3049 107.551 31.3644 190.528" stroke="white"/>
<path d="M2658.72 244.243C2625.81 255.387 2591.86 253.861 2558.75 252.034C2457.43 246.444 2374.46 280.46 2293.2 159.069C2268.86 122.723 2225.04 104.898 2186.95 85.6043C2117.01 50.1818 2037.67 25.9665 1955.18 41.2792C1828.99 64.7041 1722.3 179.319 1596.34 218.499C1507.15 246.243 1413.41 234.317 1342.45 188.625C1301.6 162.325 1267.46 128.008 1227.24 99.627C1150.63 45.5645 991.367 45.3827 988.429 45.4021C941.563 45.7127 892.593 52.2818 852.886 80.4108C709.511 181.979 631.944 230.2 593.543 272.053C527.878 343.623 49.1009 92.9079 23.7733 176.96" stroke="white"/>
<path d="M2670.23 228.974C2636.29 240.891 2601.31 239.721 2567.17 238.408C2462.69 234.063 2377.62 270.66 2294.52 147.76C2270.36 112.021 2226.96 94.5317 2189.49 74.8109C2119.38 37.9132 2039.32 13.5176 1955.72 29.9884C1827.14 55.3228 1718.11 173.187 1590.19 213.896C1499.83 242.33 1404.75 229.917 1333.26 181.6C1292.26 153.89 1258.53 116.929 1218.25 87.38C1141.02 30.71 978.299 30.9367 976.341 30.962C930.635 31.5528 882.584 41.0866 844.024 69.3025C699.441 175.099 623.437 228.755 585.114 266.415C519.196 331.192 40.8969 78.2648 16.1821 163.392" stroke="white"/>
<path d="M2681.73 213.705C2646.78 226.394 2610.76 225.662 2575.59 224.783C2467.93 221.928 2380.8 260.84 2295.85 136.451C2271.85 101.317 2228.89 84.1623 2192.02 64.0176C2121.77 25.622 2040.98 1.07034 1956.27 18.6975C1825.3 45.9497 1714.02 167.361 1584.03 209.292C1492.57 238.634 1396.06 225.514 1324.07 174.575C1282.9 145.449 1249.61 105.856 1209.27 75.133C1131.43 15.8546 965.232 16.5027 964.254 16.5218C919.701 17.393 872.598 29.8841 835.162 58.1941C689.51 168.34 614.924 227.29 576.684 260.776C510.504 318.728 32.6929 63.6217 8.59106 149.824" stroke="white"/>
<path d="M2693.24 198.436C2657.27 211.898 2620.2 211.604 2584.02 211.158C2473.18 209.792 2384.01 251 2297.18 125.143C2273.35 90.6102 2230.83 73.7909 2194.56 53.2243C2124.18 13.3088 2042.65 -11.3755 1956.81 7.40677C1823.47 36.5839 1709.92 161.536 1577.88 204.689C1485.32 234.938 1387.36 221.105 1314.87 167.549C1273.53 137.002 1240.7 94.7892 1200.28 62.8861C1121.87 1 952.166 2.0817 952.166 2.0817C909.332 9.19033 862.635 18.6727 826.3 47.0857C679.725 161.703 606.41 225.803 568.255 255.137C501.806 306.224 24.489 48.9786 1 136.256" stroke="white"/>
</svg>
