<svg width="51" height="50" viewBox="0 0 51 50" fill="none" preserveAspectRatio="none" xmlns="http://www.w3.org/2000/svg">
<path d="M25.1268 50C39.0039 50 50.2536 38.8071 50.2536 25C50.2536 11.1929 39.0039 0 25.1268 0C11.2496 0 0 11.1929 0 25C0 38.8071 11.2496 50 25.1268 50Z" fill="url(#paint0_radial)"/>
<path opacity="0.5" d="M43.1577 31.6629C44.3337 30.1525 46.7725 26.3326 48.9019 25.9634C49.5201 25.8562 49.9537 25.8871 50.2353 26.0275C50.2461 25.7273 50.2535 25.4264 50.2535 25.1237C50.2587 21.3462 49.3976 17.6171 47.7354 14.219C44.3207 15.3357 39.1455 15.151 37.1605 17.6613C35.7257 19.4757 35.968 21.7744 34.464 23.6812C32.6647 25.9624 30.0358 26.8459 27.5972 28.2258C26.2845 28.9687 20.7442 31.3728 20.825 33.0135C20.97 35.9575 26.8816 34.2125 28.2905 33.433C31.2812 31.7785 38.7507 20.2968 42.1519 21.3345C48.6598 23.3202 36.9584 31.8939 35.0657 32.9967C30.0917 35.8951 24.6167 38.5065 18.8296 37.7091C13.8129 37.0179 8.95352 37.3858 6.13782 41.5788C8.46024 44.2124 11.3126 46.3339 14.5111 47.8068C15.2745 47.4822 16.0148 47.1066 16.727 46.6827C22.6127 43.0836 29.8108 42.5687 35.7242 38.7064C38.6469 36.7974 41.0658 34.3498 43.1577 31.6629Z" fill="#9F4493"/>
<path d="M31.0488 37.294C32.9843 37.294 34.6461 37.1039 36.0341 36.7238C37.422 36.3438 38.5617 35.799 39.4531 35.0895C40.3444 34.38 40.9939 33.5058 41.4013 32.4669C41.8088 31.428 42.0126 30.2624 42.0126 28.9701C42.0126 26.6389 41.1976 24.8968 39.5677 23.7439C37.9378 22.591 35.5565 22.0145 32.424 22.0145H18.5187C17.6019 22.0145 16.9206 21.8815 16.475 21.6154C16.0293 21.3494 15.8064 20.8869 15.8064 20.2281C15.8064 19.5693 16.0293 19.1132 16.475 18.8598C16.9206 18.6064 17.6019 18.4797 18.5187 18.4797H36.2442L41.3249 11.8662H19.13C17.1944 11.8662 15.5327 12.0563 14.1447 12.4363C12.7567 12.8164 11.6234 13.3485 10.7448 14.0327C9.86612 14.7169 9.2167 15.5467 8.79648 16.5223C8.37627 17.4978 8.16616 18.5811 8.16616 19.772C8.16616 20.8616 8.35717 21.8561 8.73918 22.7557C9.1212 23.6552 9.70695 24.4217 10.4964 25.0552C11.2859 25.6887 12.2792 26.1828 13.4762 26.5375C14.6731 26.8923 16.0993 27.0697 17.7547 27.0697H31.66C32.6023 27.0697 33.2899 27.209 33.7229 27.4878C34.1558 27.7665 34.3723 28.2353 34.3723 28.8941C34.3723 29.5529 34.1558 30.028 33.7229 30.3194C33.2899 30.6108 32.6023 30.7565 31.66 30.7565H12.3301L7.24933 37.294H31.0488Z" fill="url(#paint1_linear)"/>
<path d="M41.3249 11.8662L36.2441 18.4797H18.5187C17.6019 18.4797 16.9206 18.6064 16.4749 18.8598C16.3706 18.9191 16.2785 18.9896 16.1985 19.0711L16.2044 19.0707C13.0956 19.3516 10.6892 20.7494 8.98519 23.264C8.89522 23.1001 8.81335 22.9304 8.73916 22.7557C8.35714 21.8561 8.16614 20.8616 8.16614 19.772C8.16614 18.5811 8.37624 17.4978 8.79646 16.5223C9.21667 15.5467 9.8661 14.7169 10.7447 14.0327C11.6234 13.3485 12.7567 12.8164 14.1447 12.4363C15.5326 12.0563 17.1944 11.8662 19.1299 11.8662H41.3249Z" fill="url(#paint2_linear)"/>
<path d="M32.8352 27.1229C36.4269 27.1229 39.4816 27.9235 41.9993 29.5245C41.9491 30.5982 41.7497 31.5789 41.4013 32.4669C40.9939 33.5058 40.3444 34.38 39.4531 35.0895C38.5617 35.799 37.422 36.3438 36.0341 36.7239C34.6461 37.104 32.9843 37.294 31.0488 37.294H7.24933L12.3301 30.7565H31.66C32.6023 30.7565 33.2899 30.6109 33.7229 30.3195C34.1558 30.0281 34.3723 29.5529 34.3723 28.8941C34.3723 28.2353 34.1558 27.7665 33.7229 27.4878C33.4649 27.3217 33.1165 27.2051 32.6777 27.138L32.8352 27.1229Z" fill="url(#paint3_linear)"/>
<path opacity="0.4" d="M19.7178 49.4467C26.5724 50.8937 33.7301 49.4728 39.4776 45.5241C45.2251 41.5754 49.0452 35.4543 50.0234 28.6259C37.2107 32.8243 48.3355 41.9846 19.7178 49.4467Z" fill="url(#paint4_linear)"/>
<path opacity="0.1" d="M1.10265 23.8932C2.92949 21.1913 9.20676 5.34351 24.935 6.10687C28.6495 6.28715 29.387 2.61816 31.4564 0.806427C23.929 -1.14546 15.92 0.489876 9.7659 5.23539C3.6118 9.9809 0.00585791 17.302 0 25.0629C0 25.1056 0.001457 25.1481 0.00166515 25.1908C0.410591 24.7955 0.779376 24.3609 1.10265 23.8932Z" fill="url(#paint5_linear)"/>
<path opacity="0.3" d="M50.047 28.1629C51.657 15.6782 43.7048 3.94545 31.4761 0.763306C31.3225 1.69612 31.4664 2.80952 32.0085 4.10054C34.0264 8.90647 38.242 12.78 40.3646 17.5254C44.8162 27.4771 43.6586 39.1428 31.5854 42.3051C26.6928 43.5866 20.4633 43.0509 16.6726 39.794C7.6723 32.061 22.5138 12.9325 19.8313 7.90886C17.6463 3.81674 12.623 3.65504 9.60129 5.30412C1.18047 11.8951 -2.11933 23.0776 1.38205 33.1578C4.88344 43.238 14.4162 49.9999 25.1265 49.9999C37.7658 49.9984 48.4369 40.6476 50.047 28.1629Z" fill="#608EFF"/>
<defs>
<radialGradient id="paint0_radial" cx="0" cy="0" r="1" gradientUnits="userSpaceOnUse" gradientTransform="translate(-24.7291 24.9432) rotate(90) scale(24.9714 25.1842)">
<stop stop-color="#712D87"/>
<stop offset="1" stop-color="#490D64"/>
</radialGradient>
<linearGradient id="paint1_linear" x1="46.1117" y1="35.0036" x2="30.9344" y2="8.6968" gradientUnits="userSpaceOnUse">
<stop stop-color="#9CF9FF"/>
<stop offset="0.483129" stop-color="#02CCFC"/>
<stop offset="1" stop-color="#004194"/>
</linearGradient>
<linearGradient id="paint2_linear" x1="41.3249" y1="16.8853" x2="11.3093" y2="27.3019" gradientUnits="userSpaceOnUse">
<stop stop-color="#9CF9FF"/>
<stop offset="0.483129" stop-color="#02CCFC"/>
<stop offset="1" stop-color="#446C9F"/>
</linearGradient>
<linearGradient id="paint3_linear" x1="-4.70095" y1="33.0009" x2="58.8391" y2="17.1495" gradientUnits="userSpaceOnUse">
<stop stop-color="#9CF9FF"/>
<stop offset="0.483129" stop-color="#02CCFC"/>
<stop offset="1" stop-color="#004194"/>
</linearGradient>
<linearGradient id="paint4_linear" x1="50.0234" y1="33.9305" x2="24.8615" y2="51.8983" gradientUnits="userSpaceOnUse">
<stop stop-color="#EBFFFA"/>
<stop offset="0.568615" stop-color="#02CCFC"/>
<stop offset="1" stop-color="#446C9F"/>
</linearGradient>
<linearGradient id="paint5_linear" x1="31.4564" y1="4.41708" x2="4.47548" y2="26.2935" gradientUnits="userSpaceOnUse">
<stop stop-color="#EBFFFA"/>
<stop offset="0.568615" stop-color="#02CCFC"/>
<stop offset="1" stop-color="#446C9F"/>
</linearGradient>
</defs>
</svg>
