<svg width="162" height="36" viewBox="0 0 162 36" fill="none" xmlns="http://www.w3.org/2000/svg">
<path d="M14.4986 15.7453C15.6777 15.7453 16.6901 15.6295 17.5357 15.398C18.3812 15.1664 19.0755 14.8345 19.6185 14.4023C20.1615 13.9701 20.5572 13.4375 20.8054 12.8046C21.0536 12.1717 21.1778 11.4616 21.1778 10.6744C21.1778 9.25422 20.6813 8.19296 19.6883 7.49059C18.6954 6.78823 17.2448 6.43705 15.3364 6.43705H6.86532C6.30678 6.43705 5.89176 6.35601 5.62025 6.19392C5.34874 6.03184 5.21299 5.75012 5.21299 5.34877C5.21299 4.94742 5.34874 4.66956 5.62025 4.5152C5.89176 4.36083 6.30678 4.28365 6.86532 4.28365H17.6637L20.7589 0.254703H7.23767C6.05855 0.254703 5.0462 0.370478 4.20064 0.602026C3.35509 0.833575 2.66467 1.15774 2.12941 1.57453C1.59415 1.99132 1.19852 2.49686 0.942523 3.09117C0.686528 3.68548 0.558534 4.34539 0.558534 5.07091C0.558534 5.73468 0.674894 6.34057 0.907617 6.88857C1.14034 7.43656 1.49718 7.90352 1.97814 8.28944C2.4591 8.67535 3.06418 8.97636 3.79338 9.19247C4.52257 9.40859 5.39141 9.51664 6.39987 9.51664H14.871C15.445 9.51664 15.8639 9.60154 16.1277 9.77135C16.3914 9.94115 16.5233 10.2267 16.5233 10.6281C16.5233 11.0294 16.3914 11.3189 16.1277 11.4964C15.8639 11.6739 15.445 11.7627 14.871 11.7627H3.09521L0 15.7453H14.4986ZM37.0029 16C40.8041 16 43.651 15.3594 45.5438 14.0781C47.4366 12.7969 48.3831 10.767 48.3831 7.98842C48.3831 5.22528 47.4328 3.20309 45.5322 1.92185C43.6316 0.640618 40.7885 0 37.0029 0C33.2018 0 30.3548 0.640618 28.462 1.92185C26.5692 3.20309 25.6228 5.22528 25.6228 7.98842C25.6228 10.767 26.5653 12.7969 28.4504 14.0781C30.3354 15.3594 33.1863 16 37.0029 16ZM37.0029 11.9711C35.7928 11.9711 34.7688 11.9209 33.931 11.8205C33.0932 11.7202 32.4144 11.5234 31.8946 11.2301C31.3749 10.9368 30.9987 10.5316 30.7659 10.0145C30.5332 9.49735 30.4169 8.822 30.4169 7.98842C30.4169 7.15485 30.5332 6.4795 30.7659 5.96237C30.9987 5.44525 31.3749 5.0439 31.8946 4.75832C32.4144 4.47274 33.0932 4.27979 33.931 4.17945C34.7688 4.07911 35.7928 4.02894 37.0029 4.02894C38.2131 4.02894 39.237 4.07911 40.0749 4.17945C40.9127 4.27979 41.5914 4.47274 42.1112 4.75832C42.6309 5.0439 43.0072 5.44525 43.2399 5.96237C43.4726 6.4795 43.589 7.15485 43.589 7.98842C43.589 8.822 43.4726 9.49735 43.2399 10.0145C43.0072 10.5316 42.6309 10.9368 42.1112 11.2301C41.5914 11.5234 40.9127 11.7202 40.0749 11.8205C39.237 11.9209 38.2131 11.9711 37.0029 11.9711ZM67.3732 15.7453L70.4917 11.7627H58.4367V0.254703H53.6193V15.7453H67.3732ZM78.6137 15.7453L85.9212 5.46454L88.7139 9.56295C88.9776 9.93343 89.253 10.3309 89.5401 10.7554C89.8271 11.1799 90.0792 11.5311 90.2964 11.809C89.9241 11.7781 89.4858 11.7627 88.9815 11.7627H83.6173L80.7082 15.7453H98.8141L89.0863 1.73661C88.7449 1.24264 88.3299 0.829716 87.8412 0.49783C87.3525 0.165944 86.7435 0 86.0143 0C85.2541 0 84.6257 0.177521 84.1293 0.532562C83.6328 0.887603 83.2216 1.28895 82.8958 1.73661L72.912 15.7453H78.6137ZM108.1 15.7453V11.6469H115.5L118.968 15.7453H125.414L122.552 12.7352C122.009 12.1949 121.574 11.7704 121.249 11.4617C120.923 11.1529 120.628 10.8982 120.364 10.6975C121 10.574 121.57 10.3618 122.075 10.0608C122.579 9.75977 123.006 9.39315 123.355 8.96093C123.704 8.5287 123.971 8.04245 124.158 7.50217C124.344 6.96189 124.437 6.39074 124.437 5.78871C124.437 4.67728 124.185 3.76652 123.68 3.05644C123.176 2.34636 122.536 1.78292 121.761 1.36614C120.985 0.949349 120.124 0.659914 119.177 0.49783C118.231 0.335746 117.316 0.254703 116.431 0.254703H106.424L103.282 4.28365H116.827C117.665 4.28365 118.316 4.43415 118.782 4.73517C119.247 5.03618 119.48 5.4877 119.48 6.08973C119.48 6.63 119.224 7.05451 118.712 7.36324C118.2 7.67197 117.572 7.82634 116.827 7.82634H103.282V15.7453H108.1ZM134.816 15.7453V0.254703H129.999V15.7453H134.816ZM154.202 15.7453C155.381 15.7453 156.394 15.6295 157.239 15.398C158.085 15.1664 158.779 14.8345 159.322 14.4023C159.865 13.9701 160.261 13.4375 160.509 12.8046C160.757 12.1717 160.881 11.4616 160.881 10.6744C160.881 9.25422 160.385 8.19296 159.392 7.49059C158.399 6.78823 156.948 6.43705 155.04 6.43705H146.569C146.01 6.43705 145.595 6.35601 145.324 6.19392C145.052 6.03184 144.916 5.75012 144.916 5.34877C144.916 4.94742 145.052 4.66956 145.324 4.5152C145.595 4.36083 146.01 4.28365 146.569 4.28365H157.367L160.462 0.254703H146.941C145.762 0.254703 144.75 0.370478 143.904 0.602026C143.059 0.833575 142.368 1.15774 141.833 1.57453C141.298 1.99132 140.902 2.49686 140.646 3.09117C140.39 3.68548 140.262 4.34539 140.262 5.07091C140.262 5.73468 140.378 6.34057 140.611 6.88857C140.844 7.43656 141.201 7.90352 141.682 8.28944C142.163 8.67535 142.768 8.97636 143.497 9.19247C144.226 9.40859 145.095 9.51664 146.103 9.51664H154.574C155.148 9.51664 155.567 9.60154 155.831 9.77135C156.095 9.94115 156.227 10.2267 156.227 10.6281C156.227 11.0294 156.095 11.3189 155.831 11.4964C155.567 11.6739 155.148 11.7627 154.574 11.7627H142.799L139.703 15.7453H154.202Z" fill="white"/>
<path opacity="0.2" d="M3.438 27.7C3.984 27.7 4.458 27.79 4.86 27.97C5.268 28.15 5.58 28.408 5.796 28.744C6.012 29.08 6.12 29.479 6.12 29.941C6.12 30.397 6.012 30.796 5.796 31.138C5.58 31.474 5.268 31.732 4.86 31.912C4.458 32.092 3.984 32.182 3.438 32.182H2.016V34H0.846V27.7H3.438ZM3.384 31.192C3.894 31.192 4.281 31.084 4.545 30.868C4.809 30.652 4.941 30.343 4.941 29.941C4.941 29.539 4.809 29.23 4.545 29.014C4.281 28.798 3.894 28.69 3.384 28.69H2.016V31.192H3.384ZM26.8904 34L25.6034 32.155C25.5494 32.161 25.4684 32.164 25.3604 32.164H23.9384V34H22.7684V27.7H25.3604C25.9064 27.7 26.3804 27.79 26.7824 27.97C27.1904 28.15 27.5024 28.408 27.7184 28.744C27.9344 29.08 28.0424 29.479 28.0424 29.941C28.0424 30.415 27.9254 30.823 27.6914 31.165C27.4634 31.507 27.1334 31.762 26.7014 31.93L28.1504 34H26.8904ZM26.8634 29.941C26.8634 29.539 26.7314 29.23 26.4674 29.014C26.2034 28.798 25.8164 28.69 25.3064 28.69H23.9384V31.201H25.3064C25.8164 31.201 26.2034 31.093 26.4674 30.877C26.7314 30.655 26.8634 30.343 26.8634 29.941ZM47.7744 34.09C47.1324 34.09 46.5534 33.952 46.0374 33.676C45.5214 33.394 45.1164 33.007 44.8224 32.515C44.5284 32.017 44.3814 31.462 44.3814 30.85C44.3814 30.238 44.5284 29.686 44.8224 29.194C45.1164 28.696 45.5214 28.309 46.0374 28.033C46.5534 27.751 47.1324 27.61 47.7744 27.61C48.4164 27.61 48.9954 27.751 49.5114 28.033C50.0274 28.309 50.4324 28.693 50.7264 29.185C51.0204 29.677 51.1674 30.232 51.1674 30.85C51.1674 31.468 51.0204 32.023 50.7264 32.515C50.4324 33.007 50.0274 33.394 49.5114 33.676C48.9954 33.952 48.4164 34.09 47.7744 34.09ZM47.7744 33.064C48.1944 33.064 48.5724 32.971 48.9084 32.785C49.2444 32.593 49.5084 32.329 49.7004 31.993C49.8924 31.651 49.9884 31.27 49.9884 30.85C49.9884 30.43 49.8924 30.052 49.7004 29.716C49.5084 29.374 49.2444 29.11 48.9084 28.924C48.5724 28.732 48.1944 28.636 47.7744 28.636C47.3544 28.636 46.9764 28.732 46.6404 28.924C46.3044 29.11 46.0404 29.374 45.8484 29.716C45.6564 30.052 45.5604 30.43 45.5604 30.85C45.5604 31.27 45.6564 31.651 45.8484 31.993C46.0404 32.329 46.3044 32.593 46.6404 32.785C46.9764 32.971 47.3544 33.064 47.7744 33.064ZM69.0777 28.69H66.9897V27.7H72.3357V28.69H70.2477V34H69.0777V28.69ZM91.5488 34.09C90.9068 34.09 90.3278 33.952 89.8118 33.676C89.2958 33.394 88.8908 33.007 88.5968 32.515C88.3028 32.017 88.1558 31.462 88.1558 30.85C88.1558 30.238 88.3028 29.686 88.5968 29.194C88.8908 28.696 89.2958 28.309 89.8118 28.033C90.3278 27.751 90.9068 27.61 91.5488 27.61C92.1908 27.61 92.7698 27.751 93.2858 28.033C93.8018 28.309 94.2068 28.693 94.5008 29.185C94.7948 29.677 94.9418 30.232 94.9418 30.85C94.9418 31.468 94.7948 32.023 94.5008 32.515C94.2068 33.007 93.8018 33.394 93.2858 33.676C92.7698 33.952 92.1908 34.09 91.5488 34.09ZM91.5488 33.064C91.9688 33.064 92.3468 32.971 92.6828 32.785C93.0188 32.593 93.2828 32.329 93.4748 31.993C93.6668 31.651 93.7628 31.27 93.7628 30.85C93.7628 30.43 93.6668 30.052 93.4748 29.716C93.2828 29.374 93.0188 29.11 92.6828 28.924C92.3468 28.732 91.9688 28.636 91.5488 28.636C91.1288 28.636 90.7508 28.732 90.4148 28.924C90.0788 29.11 89.8148 29.374 89.6228 29.716C89.4308 30.052 89.3348 30.43 89.3348 30.85C89.3348 31.27 89.4308 31.651 89.6228 31.993C89.8148 32.329 90.0788 32.593 90.4148 32.785C90.7508 32.971 91.1288 33.064 91.5488 33.064ZM114.578 34.09C113.942 34.09 113.366 33.952 112.85 33.676C112.34 33.394 111.938 33.007 111.644 32.515C111.356 32.023 111.212 31.468 111.212 30.85C111.212 30.232 111.359 29.677 111.653 29.185C111.947 28.693 112.349 28.309 112.859 28.033C113.375 27.751 113.951 27.61 114.587 27.61C115.103 27.61 115.574 27.7 116 27.88C116.426 28.06 116.786 28.321 117.08 28.663L116.324 29.374C115.868 28.882 115.307 28.636 114.641 28.636C114.209 28.636 113.822 28.732 113.48 28.924C113.138 29.11 112.871 29.371 112.679 29.707C112.487 30.043 112.391 30.424 112.391 30.85C112.391 31.276 112.487 31.657 112.679 31.993C112.871 32.329 113.138 32.593 113.48 32.785C113.822 32.971 114.209 33.064 114.641 33.064C115.307 33.064 115.868 32.815 116.324 32.317L117.08 33.037C116.786 33.379 116.423 33.64 115.991 33.82C115.565 34 115.094 34.09 114.578 34.09ZM136.492 34.09C135.85 34.09 135.271 33.952 134.755 33.676C134.239 33.394 133.834 33.007 133.54 32.515C133.246 32.017 133.099 31.462 133.099 30.85C133.099 30.238 133.246 29.686 133.54 29.194C133.834 28.696 134.239 28.309 134.755 28.033C135.271 27.751 135.85 27.61 136.492 27.61C137.134 27.61 137.713 27.751 138.229 28.033C138.745 28.309 139.15 28.693 139.444 29.185C139.738 29.677 139.885 30.232 139.885 30.85C139.885 31.468 139.738 32.023 139.444 32.515C139.15 33.007 138.745 33.394 138.229 33.676C137.713 33.952 137.134 34.09 136.492 34.09ZM136.492 33.064C136.912 33.064 137.29 32.971 137.626 32.785C137.962 32.593 138.226 32.329 138.418 31.993C138.61 31.651 138.706 31.27 138.706 30.85C138.706 30.43 138.61 30.052 138.418 29.716C138.226 29.374 137.962 29.11 137.626 28.924C137.29 28.732 136.912 28.636 136.492 28.636C136.072 28.636 135.694 28.732 135.358 28.924C135.022 29.11 134.758 29.374 134.566 29.716C134.374 30.052 134.278 30.43 134.278 30.85C134.278 31.27 134.374 31.651 134.566 31.993C134.758 32.329 135.022 32.593 135.358 32.785C135.694 32.971 136.072 33.064 136.492 33.064ZM156.605 27.7H157.775V33.01H161.069V34H156.605V27.7Z" fill="white"/>
</svg>
